# xmcd
#
# Track frame offsets:
#	150
#	23470
#	52270
#	78636
#	99383
#	121466
#	160593
#	178378
#	208068
#	230466
#	242453
#	272032
#	296792
#	313574
#	337299
#
# Disc length: 4702 seconds
#
# Revision: 1
# Processed by: cddbd v1.5.2PL0 Copyright (c) Steve Scherf et al.
# Submitted via: audiograbber 1.83.01
#
DISCID=db125c0f
DTITLE=El Cruce - 10 Años De Blues Criollo [CD1]
DYEAR=2009
DGENRE=Blues
TTITLE0=Bájate De La Nube
TTITLE1=Cómo Decirte Que Me Voy
TTITLE2=Trato De Hacer Blues
TTITLE3=Nadie Te Amó Como Yo
TTITLE4=Deja De Fastidiar
TTITLE5=A Que No Sabes Quién
TTITLE6=Blues A Rodrigo
TTITLE7=Despertar
TTITLE8=Lléveme
TTITLE9=Mi Negra
TTITLE10=Blues A Un Amigo
TTITLE11=Galán
TTITLE12=A Encender El Blues
TTITLE13=Mapuche
TTITLE14=Me Gustan Todas
EXTD=http://www.sello-ovejanegra.cl/
EXTT0=
EXTT1=
EXTT2=
EXTT3=
EXTT4=
EXTT5=
EXTT6=
EXTT7=
EXTT8=
EXTT9=
EXTT10=
EXTT11=
EXTT12=En Vivo
EXTT13=En Vivo
EXTT14=En Vivo
PLAYORDER=
